<?xml version="1.0" standalone="no"?>
<!DOCTYPE svg PUBLIC "-//W3C//DTD SVG 20010904//EN"
 "http://www.w3.org/TR/2001/REC-SVG-20010904/DTD/svg10.dtd">
<svg version="1.0" xmlns="http://www.w3.org/2000/svg"
 width="512.000000pt" height="512.000000pt" viewBox="0 0 512.000000 512.000000"
 preserveAspectRatio="xMidYMid meet">

<g transform="translate(0.000000,512.000000) scale(0.100000,-0.100000)"
fill="#000000" stroke="none">
<path d="M1799 5061 l-24 -19 -3 -319 -3 -318 -97 0 c-107 0 -146 -14 -228
-80 -42 -35 -97 -126 -109 -183 -6 -29 -10 -33 -33 -28 -164 33 -205 37 -251
26 -89 -21 -160 -106 -161 -192 l0 -37 -307 -3 c-290 -3 -311 -4 -354 -24 -67
-31 -124 -87 -156 -152 l-28 -57 0 -1695 c0 -1643 1 -1697 19 -1744 24 -63 86
-130 151 -164 l50 -27 1405 0 1405 0 46 21 c62 29 121 83 150 139 l24 45 568
0 568 0 24 25 25 24 0 561 0 560 275 0 276 0 24 25 25 24 0 611 c0 597 0 610
-20 630 -19 19 -33 20 -410 20 l-390 0 0 1150 0 1151 -25 24 -24 25 -1194 0
c-1161 0 -1195 -1 -1218 -19z m391 -286 c0 -228 -14 -215 240 -215 254 0 240
-13 240 215 l0 165 135 0 135 0 0 -515 0 -515 -240 0 -240 0 0 28 c0 88 -68
178 -152 201 -39 11 -62 11 -150 -4 -56 -9 -111 -19 -120 -21 -11 -3 -18 0
-18 8 -1 27 -48 128 -79 166 l-31 40 0 306 0 306 140 0 140 0 0 -165z m338 48
l-3 -118 -95 0 -95 0 -3 118 -3 117 101 0 101 0 -3 -117z m832 -48 c0 -228
-15 -215 245 -215 254 0 235 -17 235 210 l0 170 135 0 135 0 0 -515 0 -515
-510 0 -510 0 0 515 0 515 135 0 135 0 0 -165z m340 45 l0 -120 -95 0 -95 0 0
120 0 120 95 0 95 0 0 -120z m-1943 -571 c76 -37 123 -117 123 -209 0 -41 16
-69 44 -80 14 -5 69 0 157 16 231 41 229 42 229 -131 l0 -122 -31 -7 c-17 -3
-305 -6 -640 -6 l-609 0 0 123 c0 185 0 185 237 143 177 -31 203 -21 203 78 0
89 38 153 114 191 61 31 116 32 173 4z m-867 -558 c0 -133 -79 -121 787 -121
l734 0 24 25 c22 21 25 33 25 100 l0 76 293 -3 c271 -3 294 -4 326 -23 44 -26
70 -62 81 -111 14 -57 13 -3279 0 -3326 -14 -48 -55 -97 -97 -114 -27 -12
-266 -14 -1391 -14 l-1359 0 -43 23 c-30 16 -51 37 -67 67 l-23 43 0 1651 c0
1053 4 1664 10 1686 11 41 62 93 105 108 18 6 144 11 313 11 l282 1 0 -79z
m2810 -41 l0 -120 -100 0 -100 0 0 113 c0 63 3 117 7 120 3 4 48 7 100 7 l93
0 0 -120z m-340 -53 c0 -223 -18 -207 242 -207 173 0 204 2 220 17 16 14 18
34 18 185 l0 168 85 0 85 0 0 -510 0 -510 -350 0 -350 0 0 458 c-1 457 -1 466
-35 545 -6 15 -1 17 39 17 l46 0 0 -163z m400 -1517 l0 -510 -225 0 -225 0 0
510 0 510 225 0 225 0 0 -510z m420 355 c0 -93 4 -164 11 -179 19 -42 52 -48
247 -44 238 4 222 -11 222 210 l0 168 135 0 135 0 0 -509 0 -508 -77 -7 c-42
-3 -271 -6 -510 -6 l-433 0 0 515 0 515 135 0 135 0 0 -155z m340 40 l0 -115
-100 0 -100 0 0 115 0 115 100 0 100 0 0 -115z m-940 -1220 c0 -228 -15 -215
243 -215 255 0 237 -16 237 210 l0 170 85 0 85 0 0 -515 0 -515 -460 0 -460 0
0 515 0 515 135 0 135 0 0 -165z m340 45 l0 -120 -95 0 -95 0 0 120 0 120 95
0 95 0 0 -120z"/>
<path d="M1655 4162 c-98 -20 -80 -172 20 -172 96 0 119 137 28 167 -16 5 -37
7 -48 5z"/>
<path d="M557 3416 c-48 -18 -62 -29 -81 -70 -14 -29 -16 -84 -16 -371 0 -374
2 -386 65 -425 31 -19 49 -20 382 -20 491 0 455 -37 451 457 -3 327 -4 343
-24 369 -11 15 -33 37 -48 48 -26 20 -42 21 -359 23 -261 2 -340 0 -370 -11z
m663 -441 l0 -305 -310 0 -310 0 0 305 0 305 310 0 310 0 0 -305z"/>
<path d="M1055 3170 c-11 -4 -63 -51 -115 -104 -52 -53 -98 -96 -101 -96 -4 0
-19 20 -33 45 -29 49 -62 64 -102 46 -30 -13 -47 -53 -35 -84 14 -36 102 -181
114 -189 7 -4 26 -8 42 -8 26 0 53 22 178 148 126 126 147 152 147 178 0 48
-52 82 -95 64z"/>
<path d="M1611 3224 c-12 -15 -21 -31 -21 -36 0 -23 31 -66 52 -72 13 -3 204
-6 424 -6 391 0 402 1 428 21 32 25 35 70 6 99 -19 19 -33 20 -444 20 l-425 0
-20 -26z"/>
<path d="M1619 2822 c-28 -23 -30 -73 -4 -102 18 -20 30 -20 626 -20 l608 0
21 22 c27 29 25 64 -5 93 l-24 25 -599 0 c-568 0 -601 -1 -623 -18z"/>
<path d="M525 2340 c-64 -42 -65 -49 -65 -425 0 -381 1 -389 71 -430 32 -19
52 -20 381 -20 334 0 347 1 374 21 15 11 37 33 48 48 20 26 21 42 24 369 3
382 2 388 -67 434 -34 23 -37 23 -385 23 -333 0 -353 -1 -381 -20z m695 -425
l0 -305 -310 0 -310 0 0 305 0 305 310 0 310 0 0 -305z"/>
<path d="M1055 2110 c-11 -4 -63 -51 -115 -104 -52 -53 -98 -96 -101 -96 -4 0
-19 20 -33 44 -30 52 -72 68 -110 42 -46 -29 -42 -59 19 -168 54 -93 78 -118
117 -118 7 0 80 68 165 152 133 132 153 156 153 184 0 48 -51 82 -95 64z"/>
<path d="M1615 2170 c-26 -29 -24 -79 4 -102 22 -17 50 -18 436 -18 402 0 413
1 439 21 32 25 35 70 6 99 -19 19 -33 20 -443 20 -412 0 -424 -1 -442 -20z"/>
<path d="M1634 1770 c-11 -4 -27 -22 -34 -40 -12 -28 -11 -34 7 -58 l20 -27
612 -3 c600 -2 611 -2 631 18 27 27 25 66 -5 95 l-24 25 -593 -1 c-326 0 -602
-4 -614 -9z"/>
<path d="M535 1281 c-73 -45 -70 -24 -73 -415 -3 -403 -3 -403 78 -444 45 -22
48 -23 382 -20 322 3 338 4 364 24 15 11 37 33 48 48 20 26 21 42 24 369 3
382 2 388 -67 434 -34 23 -37 23 -380 23 -319 0 -348 -2 -376 -19z m683 -428
l2 -301 -62 -7 c-35 -3 -173 -5 -308 -3 l-245 3 -3 308 -2 307 307 -2 308 -3
3 -302z"/>
<path d="M941 945 l-106 -104 -23 43 c-29 53 -63 72 -103 56 -15 -7 -33 -25
-39 -40 -11 -27 -8 -37 36 -117 54 -99 83 -133 115 -133 34 0 329 296 329 330
0 43 -26 70 -67 70 -32 0 -47 -11 -142 -105z"/>
<path d="M1619 1112 c-15 -13 -22 -30 -22 -52 0 -22 7 -39 22 -52 22 -17 50
-18 440 -18 406 0 418 1 439 20 28 26 29 73 2 100 -19 19 -33 20 -439 20 -392
0 -420 -1 -442 -18z"/>
<path d="M1633 708 c-12 -6 -27 -24 -34 -40 -10 -25 -9 -33 8 -56 l20 -27 612
-3 c600 -2 611 -2 631 18 25 25 26 61 1 91 l-19 24 -599 2 c-407 1 -605 -2
-620 -9z"/>
</g>
</svg>
