<?xml version="1.0" standalone="no"?>
<!DOCTYPE svg PUBLIC "-//W3C//DTD SVG 20010904//EN"
 "http://www.w3.org/TR/2001/REC-SVG-20010904/DTD/svg10.dtd">
<svg version="1.0" xmlns="http://www.w3.org/2000/svg"
 width="512.000000pt" height="512.000000pt" viewBox="0 0 512.000000 512.000000"
 preserveAspectRatio="xMidYMid meet">

<g transform="translate(0.000000,512.000000) scale(0.100000,-0.100000)"
fill="#000000" stroke="none">
<path d="M14 2788 c-12 -147 -6 -422 11 -553 63 -475 242 -897 544 -1280 73
-93 297 -317 390 -390 378 -297 789 -473 1266 -541 148 -21 496 -24 635 -5
492 67 896 234 1280 529 117 90 359 336 449 456 289 385 461 816 511 1276 13
121 16 384 5 513 l-7 87 -459 0 -459 0 0 -954 c0 -596 -4 -964 -10 -980 l-10
-26 -1600 0 -1600 0 -10 26 c-6 16 -10 384 -10 980 l0 954 -459 0 -459 0 -8
-92z"/>
<path d="M1037 2873 c-4 -3 -7 -426 -7 -940 l0 -933 145 0 145 0 0 883 c0 538
4 888 10 897 8 13 156 15 1230 15 1074 0 1222 -2 1230 -15 6 -9 10 -359 10
-897 l0 -883 145 0 145 0 -2 938 -3 937 -1521 3 c-836 1 -1524 -1 -1527 -5z"/>
<path d="M1410 2530 l0 -180 1150 0 1150 0 0 180 0 180 -1150 0 -1150 0 0
-180z m2104 100 c25 -9 26 -11 26 -108 0 -63 -4 -102 -12 -110 -17 -17 -1919
-17 -1936 0 -8 8 -12 47 -12 110 0 93 1 99 23 108 31 12 1878 13 1911 0z"/>
<path d="M1660 2520 l0 -30 900 0 900 0 0 30 0 30 -900 0 -900 0 0 -30z"/>
<path d="M1407 1818 c-4 -248 -7 -534 -7 -635 l0 -183 260 0 260 0 0 279 c0
218 3 281 13 290 8 6 75 12 168 13 l154 3 3 280 c2 249 4 281 19 293 13 9 94
12 324 12 266 0 310 -2 323 -16 14 -13 16 -54 16 -295 l0 -279 118 0 c78 0
122 -4 130 -12 9 -9 12 -87 12 -290 l0 -278 260 0 260 0 0 183 c0 101 -3 387
-7 635 l-6 452 -1147 0 -1147 0 -6 -452z"/>
<path d="M2340 1830 l0 -250 208 0 c114 0 231 3 260 6 l52 7 0 243 0 244 -75
0 -75 0 0 -95 c0 -83 -2 -96 -20 -105 -14 -7 -29 -6 -59 6 -36 14 -42 14 -70
-1 -24 -12 -36 -13 -51 -5 -18 10 -20 21 -20 105 l0 95 -75 0 -75 0 0 -250z
m490 -60 c20 -13 19 -148 -1 -161 -22 -14 -263 -11 -277 3 -16 16 -16 140 0
156 15 15 255 17 278 2z"/>
<path d="M2620 1690 c0 -6 30 -10 70 -10 40 0 70 4 70 10 0 6 -30 10 -70 10
-40 0 -70 -4 -70 -10z"/>
<path d="M2570 2035 c0 -43 1 -45 30 -45 29 0 30 2 30 45 0 43 -1 45 -30 45
-29 0 -30 -2 -30 -45z"/>
<path d="M2000 1250 l0 -250 260 0 260 0 0 250 0 250 -75 0 -74 0 -3 -96 c-4
-117 -15 -132 -76 -98 l-37 22 -36 -21 c-58 -33 -69 -17 -69 99 l0 94 -75 0
-75 0 0 -250z m490 -60 c11 -7 15 -28 15 -80 0 -96 -6 -100 -150 -100 -145 0
-155 6 -155 99 0 39 5 72 12 79 15 15 255 17 278 2z"/>
<path d="M2280 1110 c0 -6 30 -10 70 -10 40 0 70 4 70 10 0 6 -30 10 -70 10
-40 0 -70 -4 -70 -10z"/>
<path d="M2230 1456 c0 -41 2 -44 30 -48 30 -5 30 -4 30 44 0 47 -1 48 -30 48
-29 0 -30 -2 -30 -44z"/>
<path d="M2600 1250 l0 -250 260 0 260 0 0 250 0 250 -75 0 -75 0 0 -94 c0
-117 -10 -130 -74 -99 l-42 21 -28 -20 c-22 -17 -32 -19 -52 -10 -23 11 -24
16 -24 107 l0 95 -75 0 -75 0 0 -250z m494 -66 c11 -10 16 -34 16 -75 0 -91
-12 -99 -153 -99 -146 0 -157 6 -157 95 0 92 5 95 155 95 99 0 127 -3 139 -16z"/>
<path d="M2880 1110 c0 -6 30 -10 70 -10 40 0 70 4 70 10 0 6 -30 10 -70 10
-40 0 -70 -4 -70 -10z"/>
<path d="M2830 1456 c0 -41 2 -44 30 -48 30 -5 30 -4 30 44 0 47 -1 48 -30 48
-29 0 -30 -2 -30 -44z"/>
</g>
</svg>
